<?xml version="1.0" standalone="no"?>
<!DOCTYPE svg PUBLIC "-//W3C//DTD SVG 20010904//EN"
 "http://www.w3.org/TR/2001/REC-SVG-20010904/DTD/svg10.dtd">
<svg version="1.0" xmlns="http://www.w3.org/2000/svg"
 width="80.000000pt" height="80.000000pt" viewBox="0 0 80.000000 80.000000"
 preserveAspectRatio="xMidYMid meet">
<metadata>
Created by potrace 1.11, written by Peter Selinger 2001-2013
</metadata>
<g transform="translate(0.000000,80.000000) scale(0.100000,-0.100000)"
fill="#000000" stroke="none">
<path d="M288 790 c-15 -4 -30 -5 -34 -1 -4 3 -4 1 -1 -5 4 -7 -4 -14 -21 -17
-15 -3 -37 -15 -49 -27 -13 -11 -23 -17 -23 -13 0 13 -80 -76 -110 -123 -16
-27 -30 -56 -30 -66 0 -10 -4 -18 -9 -18 -11 0 -8 -214 4 -255 12 -44 52 -104
101 -154 24 -24 44 -41 44 -37 0 4 10 -3 23 -14 12 -12 34 -24 49 -27 15 -3
26 -9 23 -13 -5 -8 -2 -9 110 -14 50 -3 108 0 130 5 22 6 46 11 53 11 6 1 12
5 12 10 0 4 3 7 8 6 10 -3 72 35 72 44 0 4 5 8 11 8 22 0 103 105 109 142 0 4
7 20 15 35 8 14 12 30 9 35 -3 4 -1 8 5 8 13 0 8 180 -6 205 -6 11 -11 22 -10
25 2 11 -28 70 -36 70 -5 0 -5 5 -2 10 3 6 1 10 -4 10 -6 0 -11 7 -11 16 0 8
-4 12 -10 9 -5 -3 -10 -2 -10 3 0 14 -33 48 -53 55 -10 4 -15 12 -12 17 4 6 3
10 -2 8 -4 -1 -33 11 -63 26 -47 24 -69 28 -155 31 -55 2 -112 0 -127 -5z"/>
</g>
</svg>
